<?xml version="1.0" encoding="utf-8"?><svg viewBox="0 0 100 100" xmlns="http://www.w3.org/2000/svg" xmlns:xlink="http://www.w3.org/1999/xlink"><style>:root>svg{display:none}:root>svg:target{display:block}</style><svg version="1.1" id="equipment_internet_of_things_wifi_technology_iot_smart_icon_261629" viewBox="0 0 100 100" xml:space="preserve" xmlns="http://www.w3.org/2000/svg"><style>.ast0{fill:#222}</style><path class="ast0" d="M16.2 50.4c.3-.4.3-.9.4-1.4.6-2.3 2-4.3 4.1-5.6.3-.1.5-.5.4-.8-1.6-7.8 3.4-15.3 11.2-16.9.4-.1.8-.1 1.2-.2 2.6-.3 5.2.1 7.6 1.3l.5.3h.1c5.7-9.3 17.9-12.2 27.2-6.4 3.3 2.1 6 5 7.6 8.6 2.1 4.3 2.5 9.1 1.2 13.7.2.2.5.3.8.4 2.9 1.4 4.9 4.1 5.5 7.3 0 .1 0 .3.1.3v2.8c-.2.2-.2.5-.3.8-.9 4.2-4.5 7.2-8.8 7.4-2.1.1-4.3 0-6.4 0h-.7v6.7h3.6c-.1.9-.1 1.8 0 2.7h-4.7c-1.1 0-1.6-.5-1.6-1.6V62h-6.5v9.8c-.9-.2-1.8-.2-2.6 0V62h-12v5.8c-.9-.2-1.7-.2-2.6 0V62h-6.4c-.1.2-.1.5-.1.7v6.9c0 1.3-.4 1.7-1.7 1.7h-4.6c.2-.9.1-1.8-.1-2.6h3.7v-6.6c-.2-.2-.5-.1-.7-.1-2.2 0-4.4.1-6.5-.1-4.2-.3-7.8-3.3-8.7-7.4-.1-.3 0-.6-.3-.8l.1-3.3zm58.5-7.8c1-2.7 1.1-6.1.1-9.6-1.9-7-8.2-12.2-15.4-12.6-7.2-.4-12.5 2.8-16.1 8.9-.7 1.1-1.3 1.3-2.3.6-5.4-3.4-12.5-1.8-15.9 3.6-.7 1.2-1.3 2.4-1.5 3.8-.4 1.7-.4 3.6.1 5.3h5.1c1 0 1.6.5 1.6 1.3s-.6 1.4-1.6 1.4h-5c-.7 0-1.4.2-2 .7-2.5 1.7-3.6 5.4-2.7 8.5.9 3 3.8 5.1 6.9 4.9h47.8c.6 0 1.1 0 1.6-.1 3.8-.8 6.3-4.5 5.5-8.4-.2-1-.6-1.9-1.2-2.7-1.2-1.9-3.3-3-5.5-2.9-1.7.1-3.4 0-5.1 0-.7 0-1.3-.7-1.3-1.4 0-.5.3-.9.7-1.1.3-.1.5-.1.8-.1l5.4-.1z"/><path d="M55.8 71.8c.9-.1 1.8-.1 2.6 0 2.6.8 4.1 2.8 4.1 5.2 0 2.9-2.4 5.3-5.3 5.3s-5.3-2.4-5.3-5.3c0-2.2 1.4-4.2 3.5-5 .2 0 .3-.1.4-.2zm-14.3-4c.9-.2 1.7-.2 2.6 0 2 .7 3.4 1.9 3.8 4.1.4 2.2-.1 4.1-2.4 5.6-1.8 1.2-4.2 1-5.9-.3-1.5-1-2.3-2.7-2.1-4.5.1-2.3 1.7-4.3 4-4.9zm29.8 3.5c-.1-.9-.1-1.8 0-2.7.4-.8.8-1.6 1.4-2.3 1.3-1.4 3.3-1.9 5.1-1.4 2 .4 3.5 2.1 3.8 4.1.6 2.8-1.2 5.6-4 6.2-.3.1-.6.1-.9.1-2.5.1-4.8-1.6-5.4-4zm-42.7-2.6c.2.9.2 1.7.1 2.6-.4 1.2-1.2 2.3-2.2 3.1-2.4 1.6-5.7 1-7.3-1.4-1.6-2.4-1-5.7 1.4-7.3 2.4-1.6 5.7-1 7.3 1.4.3.5.6 1 .7 1.6z" fill="#48ede5"/><path class="ast0" d="M50.4 37.5c2.9.1 5.7 1.3 7.8 3.4.5.4.6 1.1.3 1.6s-.9.8-1.4.7c-.3-.1-.6-.2-.8-.5-3.6-3.5-9.3-3.5-12.9 0-.5.6-1.3.7-1.9.2l-.1-.1c-.6-.6-.5-1.4.2-2 2.4-2.2 5.6-3.4 8.8-3.3z"/><path class="ast0" d="M54.9 45.5c0 .6-.3 1.1-.8 1.3-.5.2-1.1.1-1.4-.3-.5-.5-1.2-.9-1.9-1-1.3-.3-2.7 0-3.7 1-.4.4-1.1.6-1.6.3s-.8-.8-.7-1.4c0-.3.2-.6.4-.8 2.6-2.5 6.6-2.5 9.2 0 .3.3.5.6.5.9zm-3.7 3.9c0 .7-.5 1.3-1.3 1.4h-.1c-.7 0-1.3-.6-1.3-1.3 0-.7.6-1.4 1.4-1.4.7 0 1.2.6 1.3 1.3z"/></svg></svg>